<svg xmlns="http://www.w3.org/2000/svg" viewBox="0 0 264 264"><path fill="#cfb7d5" d="M164.232 247.604c-3.152-4.52-7.399-4.534-15.849-6.166-1.433-1.022-11.174-8.847-15.717-10.2-4.33-4.78-3.413-3.72-4.56-5.026-.263-4.899-3.311-8.184-6.328-11.92-1.057-1.308-2.31-2.37-3.997-2.506a120.226 120.226 0 0 0-5.635-7.362c-5.605-16.61-6.472-14.769-12.505-25.639-2.179-3.925-3.82-8.213-7.238-11.22a2.432 2.432 0 0 0-.698-.41c-1.648-3.168-3.678-5.953-6.343-7.788-7.573-5.217-17.616-.42-22.843 6.135-1.116 1.4-1.777 2.802-2.172 4.246-3.635 4.106-16.926 24.886-22.02 33.5-6.547 11.073-16.569 24.73-16.56 38.153.006 11.734 11.202 17.027 23.047 17.576.19.935.787 1.755 1.901 2.098 9.968 3.066 19.713-1.31 31.899-2.959-.27.516.711 1.927 3.182 1.907.862-.007 1.645-.283 2.486-.388 1.253-.158 2.584-.025 3.846-.038 1.75-.02 2.23-1.291 1.981-2.478 13.897-.657 19.227.395 54.355-3.662 5.862 1.009 12.343.508 17.625.002 2.949-.283 3.565-3.816 2.143-5.855zm-84.794 10.408c1.59-.203 3.179-.376 4.769-.512-1.691.943-2.92.895-4.77.512z"/><path fill="#b78fc1" d="M77.291 158.514c-15.952.793-21.393 14.476-28.296 26.7-8.53 15.104-18.299 30.613-23.7 47.187-2.128 6.53-2.704 14.385 2.569 19.663 5.414 5.42 13.714 4.65 20.74 4.922 17.448.676 34.486 1.698 51.945.403 20.854-1.546 41.7-3.207 62.55-4.813 4.213-.325 3.291-6.823-.907-6.5-39.77 3.063-79.797 7.995-119.704 4.49-4.75-.417-10.076-1.112-11.369-6.587-1.104-4.681 1.572-9.773 3.377-13.938 3.666-8.458 7.249-16.915 11.385-25.161 7.789-15.531 15.52-35.73 31.874-44.036 1.006-.511.816-2.394-.464-2.33z"/><path fill="#b78fc1" d="M27.005 232.215c-.6 3.212-.623 5.798-.508 9.045.099 2.803-.337 5.43 1.003 8.013 2.058 3.967 6.456 6.211 10.237 8.21 5.104 2.696 10.313 2.745 15.981 3.099 6.714.419 13.162 1.096 19.246-2.146.708-.377.741-1.46-.06-1.763-9.405-3.554-19.34.959-28.839-1.552-4.319-1.142-9.088-4.33-11.391-8.196-2.52-4.229-1.716-9.469-1.909-14.204-.084-2.052-3.346-2.724-3.76-.506z"/><path fill="#b78fc1" d="M29.656 240.354c-.047-5.732 3.281-11.16 5.477-16.241a214.816 214.816 0 0 1 6.113-12.92c4.379-8.529 9.126-16.882 14.595-24.763 5.082-7.322 10.98-15.972 18.386-21.118 5.116-3.555 8.876-1.362 12.206 3.126 2.718 3.663 5.605 7.824 7.707 11.871 8.538 16.444 16.24 33.57 27.227 48.642 5.049 6.925 11.397 13.09 18.93 17.268 5.331 2.958 14.81 7.311 20.555 3.622 2.327-1.494 3.05-4.914.42-6.623-2.865-1.864-6.235-1.857-9.53-2.595-4.18-.935-8.096-2.443-11.797-4.628-6.775-4-12.282-9.794-16.904-16.102-4.795-6.542-8.177-14.206-11.775-21.444-3.886-7.82-8.323-15.362-12.204-23.145-5.099-10.226-14.375-25.195-27.51-15.939-5.697 4.015-10.442 10.24-14.7 15.68-4.424 5.651-8.4 11.632-12.1 17.778-4.489 7.456-8.576 15.183-12.286 23.055-1.78 3.777-3.48 7.477-4.041 11.638-.612 4.546.06 8.432.533 12.892.048.451.702.395.698-.054z"/><path fill="#b78fc1" d="M29.552 242.144c.984-4.637 3.459-9.615 5.14-14.086a143.327 143.327 0 0 1 4.379-10.392 203.216 203.216 0 0 1 11.198-20.68c4.566-7.374 9.825-14.338 15.615-20.793 3.317-3.698 7.057-9.294 12.624-6.337 1.724.915 2.994 2.537 4.345 3.904 1.876 1.897 3.916 3.58 5.82 5.446 11.815 11.584 18.79 27.97 24.7 43.083 5.087 13.014 13.236 33.328 30.458 31.434 6.144-.676 5.962-9.154-.2-9.57-14.554-.985-23.118-19.026-29.188-30.183-6.31-11.599-10.048-24.318-17.277-35.519-3.87-5.996-7.96-11.45-14.604-14.546-5.688-2.65-11.337-1.61-15.89 2.613-9.542 8.848-17.27 20.389-23.597 31.683-3.882 6.928-6.877 14.25-9.365 21.786a146.912 146.912 0 0 0-3.194 11.131c-.888 3.63-.82 7.313-1.651 10.892-.102.439.593.575.687.134z"/><path fill="#b78fc1" d="M34.632 235.192c-.948 5.172 3.357 9.07 7.382 11.683 5.711 3.706 11.349 3.427 17.95 3.2.427-.015.457-.617.119-.782-4.452-2.177-8.762-4.663-13.085-7.04-3.89-2.138-5.788-5.948-9.366-8.335-1.057-.704-2.771.025-3 1.274zm36.148-56.8c6.37-.423 11.573 10.222 14.932 14.297 3.978 4.826 7.104 10.819 10.302 16.23.245.413.864.027.712-.395-2.6-7.217-6.354-14.19-11.103-20.239-4.227-5.385-7.777-9.848-14.803-10.586-.511-.053-.545.727-.04.693zm23.725 76.718c5.662 5.07 17.14 3.559 23.887 2.022 8.335-1.898 16.03-6.983 14.781-16.471-.506-3.848-5.999-4.103-7.808-1.212-4.124 6.587-10.324 9.675-17.791 11.198-4.31.879-9.645.931-13.1 3.969-.144.125-.095.38.031.494z"/><path fill="#b78fc1" d="M105.757 253.79c3.782-.226 6.822.72 10.423-.836 2.602-1.124 4.734-2.862 6.305-5.234 3.766-5.686 3.728-12.435.2-18.094-.183-.295-.709-.165-.736.181-.41 5.24.496 11.492-2.488 16.088-2.268 3.493-9.476 6.973-13.758 7.197-.45.024-.397.726.054.699z"/><path fill="#fff" d="M65.617 168.789c4.856-2.37 10.025-4.309 15.192-1.784 3.273 1.6 6.19 4.074 8.589 6.777 4.956 5.584 7.766 12.6 12.275 18.502.474.62 1.39.214 1.235-.558-1.862-9.251-6.889-18.112-14.156-24.221-8.183-6.878-15.691-5.888-23.494.597-.314.262-.067.895.36.687zm47.564 46.432c-.083 2.258 1.7 4.412 2.788 6.296 1.21 2.092 2.416 4.27 4.163 5.965.352.341 1.118.138 1.07-.426-.202-2.377-1.178-4.495-2.313-6.568-1.126-2.056-2.583-5.017-4.928-5.826-.373-.129-.766.18-.78.559zM28.576 235.66c-2.96 5.42 1.701 11.658 6.243 14.52 6.294 3.965 14.767 4.515 21.767 2.473.606-.177.55-.97-.064-1.082-4.92-.907-10.008-.433-14.846-1.765-2.756-.759-5.216-1.93-7.322-3.907-2.965-2.783-3.467-6.314-4.56-10.097-.157-.547-.94-.65-1.218-.142zm88.394 17.905c8.994 1.073 20.028 1.324 28.836-1.022.517-.137.556-.876-.017-.967-9.13-1.463-19.817-.114-28.825 1.892-.049.011-.041.09.006.097z"/><path fill="#68ea68" d="M219.491 186.467c.23-.786.043-1.684-.76-2.315-7.453-5.852-16.4-9.233-22.518-16.77-.263-2.052-2.438-5.017-3.869-6.814-5.197-17.974-5.294-15.783-5.25-23.93.145-26.47 7.964-51.695 8.129-55.858 1.117-3.094 1.738-6.228.242-9.553-5.347-11.88-22.969-5.005-31.744-2.214-1.152.366-2.079.912-2.812 1.57l-.09.008a34.167 34.167 0 0 0-2.226-.935c-1.061-1.248-1.995-2.357-3.619-3.523-1.322-.949-2.693-1.826-4.021-2.768-12.723-9.022-15.889-14.84-24.014-21.702-.295-3.562-.33-7.048-.318-10.126 1.808-3.538 4.271-6.745 7.474-9.403 5.83-4.837 5.244-15.411-3.416-16.837-18.697-3.078-40.303-1.492-52.574 14.916-12.953 17.322-4.206 37.311 6.6 53.065 4.868 7.1 6.085 15.402 8.125 23.621 2.186 8.808 4.447 17.621 7.26 26.253 2.705 8.304 6.096 16.197 10.966 23.482.498.744 1.026 1.549 1.584 2.382a8.698 8.698 0 0 0 1.232 5.355c6.1 10.17 14.049 19.083 23.28 26.51.354.286.718.558 1.08.833 7.276 7.095 14.574 14.467 22.974 20.19 8.71 5.933 18.172 10.086 28.143 13.41 5.166 1.721 10.397 3.432 15.68 4.75 5.613 1.399 12.83 2.996 18.597 1.345 3.507.477 7.088-.453 10.05-2.57 1.865-.364 3.583-1.051 4.869-2.64 9.19-11.355-8.367-25.155-19.054-29.732zm-46.312-70.988c.166-.074.33-.157.491-.248-.11.558-.217 1.116-.325 1.673-.056-.474-.115-.95-.166-1.425z"/><path fill="#5acc5a" d="M230.859 193.882c-4.296-4.358-14.648-12.785-20.731-13.57-.89-.43-1.822-.848-2.619-1.32.297-1.1-4.762-4.855-8.303-7.932-13.682-25.826-13.323-38.27-7.06-70.588 1.767-9.12 6.77-22.758.937-31.274-3.706-5.412-9.634-5.419-15.572-4.01.192-.463.262-.962.142-1.408-3.663-13.674-15.367-29.118-24.657-39.783a9.045 9.045 0 0 0-3.042-3.362c-2.605-2.78-5.341-5.445-8.293-7.93-1.174-.987-2.417-1.057-3.435-.617a4.693 4.693 0 0 0-.663-1.294c-6.273-8.454-17.445-7.578-27.64-4.925-2.475.176-4.95.541-7.358.981-9.728 1.779-19.626 4.574-24.74 13.131-3.555 4.19-4.285 9.2-4.184 14.762-1.053.997-1.705 2.479-1.51 3.868-.223-1.582-.184 1.114-.145 1.406.145 1.088.648 2.311 1.258 3.289.982 18.737 14.774 33.59 22.608 49.626 4.17 8.536 6.778 17.407 8.726 26.667 1.81 8.601 3.099 17.443 7.168 25.329 4.09 7.926 10.012 15.58 16.77 22.243 3.523 7.79 11.817 13.85 17.79 19.732 6.524 6.424 13.195 12.906 20.69 18.198 13.994 9.881 30.504 17.61 47.765 19.027 7.843.644 15.883-.052 21.332-6.389a15.59 15.59 0 0 0 2.95-5.115c.365.766.866 1.941 1.548 1.155 5.226-6.01-3.108-15.522-9.732-19.897zM194.6 166.325c-3.387-4.271-6.465-9.1-8.991-13.915a52.24 52.24 0 0 1-3.419-8.15c.084-.014.168-.022.252-.036.721-.132 1.485-.24 2.183-.472a78.189 78.189 0 0 0 9.975 22.573zm-11.577-52.94c-1.204-.271-2.208-.176-3.436 0 .315-5.515.534-11.276.005-16.884 2.133.122 3.96.79 5.911 1.014-.915 5.278-1.816 10.556-2.48 15.87zm-.527 4.851c-.65 7.09-.39 13.95 1.243 21.754-.629.084-1.298.332-1.887.455-.237.05-.477.08-.716.123-1.816-7.262-2.196-14.797-1.815-22.476.756.135 1.765.247 3.175.144zm3.811-25.41c-2.46-.794-4.68-.382-7.145.183-1.153-7.288-3.598-12.91-8.269-18.508 3.737-1.149 7.694-2.486 11.378-2.676 8.753-.452 5.611 11.702 4.036 21.001zm-21.29-23.673-.196-.12a17.61 17.61 0 0 0 2.423-1.126c.92-.142 1.84-.29 2.766-.432-4.866 1.661-4.334 1.352-4.992 1.678zM121.116 16.24c6.167 4.542-1.599 9.081.357 27.116-16.378-11.507-29.015-4.958-35.944-5.906-2.736-.373-4.677-1.809-6.981-3.124 1.509-7.782 4.89-10.878 6.822-13.304 4.311-1.838 9.205-2.725 13.68-3.88 4.871-1.26 9.806-2.819 14.825-3.456 2.668.312 5.189 1.042 7.24 2.554zm17.336 45.772c3.049 2.246 6.49 3.881 10.213 5.026 2.078 1.114 4.165 1.962 6.253 2.472a2.06 2.06 0 0 0-.05.52c-6.073-1.467-11.981-3.622-16.456-7.957.013-.02.028-.04.04-.061zm88.79 149.358c-9.273 5.165-30.781-2.451-40.869-7.698-17.3-12.69-34.62-30.28-39.695-33.817-.911-.888-1.824-1.77-2.738-2.646-8.305-10.15-16.527-20.397-24.268-30.988-5.415-11.92-8.95-24.826-13.768-36.947-6.411-16.126-18.545-30.126-24.44-44.306 6.624 1.48 15.72-.1 20.694 1.94 7.72 3.165 15.548 11.168 28.052 9.332 7.286 8.522 17.615 11.144 28.682 13.03 1.145.195 2.078-.051 2.804-.54 14.126 12.385 5.99 34.448 9.91 56.32 1.76 9.828 5.81 19.84 12.052 27.713 3.785 4.772 12.254 11.199 15.35 13.34 7.544 6.962 16.324 12.652 23.797 19.652 4.059 3.802 12.35 11.207 4.437 15.615z"/><path fill="#5753f4" d="M238.194 216.057c-.343.336-.692.67-1.045.998.146-.288.286-.575.405-.864.04-.1-.088-.191-.163-.105-.667.763-1.47 1.417-2.333 2.012a.238.238 0 0 0-.235.034c-1.92 1.33-4.232 1.515-6.366 2.25-2.644-.371-5.357-1.267-7.306-1.635-4.006-.759-9.368-.515-12.955-2.366-.968-.45-1.852.166-2.116.938a90.584 90.584 0 0 1-5.937-2.536c-6.625-3.084-13.537-5.61-20.284-8.441-3.1-2.989-7.124-5.168-10.743-7.348a88.95 88.95 0 0 0-14.844-7.212c-.053-.047-.11-.09-.162-.136-.523-.458-1.033-.92-1.546-1.383-1.845-2.384-4.703-4.395-6.605-6.134-1.719-1.57-4.18-4.444-6.773-5.913-.94-4.564-5.061-7.98-7.999-11.512-3.515-4.227-6.658-8.83-9.581-13.482-2.917-4.645-5.329-9.538-7.404-14.613-1.752-4.282-2.998-8.214-5.996-11.65a86.799 86.799 0 0 1-.67-3.536c-.489-2.912-.854-5.795-2.749-7.937a23.327 23.327 0 0 0-.703-3.345c-.987-3.45-2.047-7.128-4.199-9.893 1.203-4.484-.825-8.889-2.399-13.114-1.914-5.142-4.82-9.943-7.853-14.498-2.654-3.986-5.467-7.868-8.036-11.908-1.036-1.63-2.036-3.76-3.461-5.246-2.816-8.23-9.912-16.506-5.441-25.608 1.457-2.965-2.019-6.243-4.674-3.77-1.426 1.328-4.388 1.309-6.154 1.993a15.692 15.692 0 0 0-4.777 2.886c-2.362 2.076-3.685 4.65-4.456 7.683-.454 1.787-.786 3.65-.158 5.33-.04.384-.048.771.001 1.16.396 3.138 3.174 5.151 6.11 5.165 1.158.962 2.148 2.178 3.047 3.427-.15.322-.282.634-.386.943-2.494.793-4.924 2.153-7.028 2.99-2.373.946-1.683 5.17.958 5.084 3.516-.118 8.162-.436 11.192-2.618 1.62 1.67 3.408 3.65 4.622 5.721a5.42 5.42 0 0 1-.66 2.163 2.126 2.126 0 0 0-.29.152c-.58-.672-1.487-1.088-2.58-.945-1.162.153-2.219.793-3.326 1.173-1.304.447-2.271 1.222-3.397 1.99-1.433.977-.853 3.235.786 3.563 1.53.306 2.86.522 4.369.005 1.355-.466 2.92-.914 3.955-1.949.074-.074.133-.153.197-.23.341.205.759.312 1.253.257.337-.04.65-.102.946-.178-.115.76.373 1.547.918 2.01l.775 2.499a3.947 3.947 0 0 0-1.75.763c-.898.677-1.682 1.475-2.51 2.234-.843.774-1.27 1.737-2.007 2.58-1.289 1.474.152 3.59 1.916 3.478 1.851-.12 3.205-.676 4.527-1.914.737-.691 1.454-1.395 2.263-2.005.04-.03.066-.072.104-.105 1.748.118 2.156 3.345 2.26 5.715a2.844 2.844 0 0 0-1.868.655c-.734.613-1.658 1.247-2.202 2.042-.592.865-1.411 2.14-1.257 3.248.109.777.646 1.569 1.484 1.69 1.15.167 2.606-.535 3.553-1.164.731-.486 1.365-1.15 2.039-1.713.187-.157.334-.343.464-.54.315.08.735.325 1.214.698.543 1.858 1.15 3.728 1.863 5.536-.051.025-.112.04-.16.068-.342.207-2.045 1.975-1.501 1.383-.35.381-.698.754-1.066 1.118-.856.849-1.18 1.866-1.755 2.9-.899 1.613.867 3.352 2.443 3.18 1.468-.159 2.727-.492 3.793-1.507.376.447.955.633 1.527.674.045.04.077.093.125.13 1.217.937 2.23 2.029 3.103 3.23.03.188.068.37.125.545.32.967.975 2.013 1.521 2.852.266.41.58.9.945 1.347 2.765 6.646 3.615 14.768 7.722 20.404.41 2.675 1.742 5.57 2.388 7.6.83 2.604 1.728 5.193 2.68 7.763.775 3.271 1.9 6.502 2.709 9.563 1.276 4.83 3.949 10.982 8.104 14.48 1.465 2.303 3.111 4.348 4.956 5.787a18.383 18.383 0 0 0 2.714 4.465c2.03 2.473 4.9 5.334 8.055 7.504.129.13.263.251.393.38-.373.204-.71.454-.962.748-.503.588-.892 1.314-1.286 1.979-.914 1.543-1.9 2.952-1.352 4.807.204.69.978 1.237 1.665 1.329 1.724.232 2.839-.946 4.068-1.944.511-.415 1.044-.803 1.552-1.221.241-.199.453-.44.642-.702 2.01 2.133 4.203 4.02 5.958 5.54 2.06 1.787 4.559 4.02 7.285 6 .153.126.302.252.457.377a3.254 3.254 0 0 0-.415.606c-.34.64-.544 1.402-.795 2.085a9.164 9.164 0 0 0-.517 2.01c-.15 1.11.67 2.282 1.63 2.722 1.085.5 2.222.3 3.148-.445.696-.56 1.254-1.323 1.863-1.979.313-.336.593-.676.817-1.054 2.14 1.184 4.358 2.037 6.575 2.31.658.357 1.561.367 2.48.188 2.081 1.402 4.653 3.013 7.433 4.412-.03.06-.064.122-.087.18-.563 1.403-.641 3.132-.673 4.664-.296.587-.646 1.157-.78 1.811-.238 1.154-.009 2.307.857 3.157.782.768 2.052 1.167 3.12.816 1.083-.356 1.943-1.035 2.825-1.73.498-.393 1.04-.808 1.42-1.316.4-.535.661-1.158.915-1.77.353-.851.504-1.943.201-2.867 1.119.257 2.23.425 3.319.486 2.351 1.557 4.922 2.967 7.561 3.796-.596.631-.794 1.49-.857 2.322-.057.758-.054 1.51.155 2.25.344 1.217 1.335 2.116 2.589 2.302 1.158.172 2.624-.36 3.166-1.486.35-.725.655-1.532.82-2.325a3.46 3.46 0 0 0-.303-2.34c.241-.019.483-.03.724-.063a2.4 2.4 0 0 0 .509-.128c.608.114 1.206.193 1.79.233 2.194.69 4.448 1.093 6.473.848-.419 1.794.328 3.685.998 5.335.547 1.345 2.36 1.8 3.596 1.342 1.303-.483 2.234-1.952 1.848-3.365-.317-1.159-.339-2.386-.705-3.513.095-.035.194-.069.281-.106.527-.224.87-.588 1.072-1.004 4.556.198 9.404-.151 12.94-2.863 3.746-1.451 7.38-4.292 9.492-7.48a31.752 31.752 0 0 0 2.136-1.943c.227-.223-.076-.62-.306-.396zM65.854 46.16c.033.13.076.263.111.394a57.142 57.142 0 0 0-.198-.167c.029-.076.059-.15.087-.227zm-.074-10.09c-.047-.036-.095-.07-.142-.103.057-.019.113-.04.17-.058l-.028.161z"/><path fill="#3a3aef" d="M238.507 215.427c-3.02.381-5.943 2.415-8.785 4.465-2.769.19-5.56.808-8.336.63-3.462-.224-7.06-1.596-10.496-2.249-7.493-1.422-14.3-3.681-21.167-6.968-6.519-3.12-13.208-5.934-19.647-9.218-3.051-1.556-6.022-3.365-8.941-5.267.146-.477.013-1.062-.448-1.404-2.876-2.133-6.214-3.488-9.092-5.67-3.324-2.517-6.145-5.54-8.866-8.68-5.49-6.34-11.659-12.122-16.99-18.589-8.228-9.98-11.411-22.006-15.618-33.728-.4-6.443-3.07-13.426-5.142-19.086-3.144-8.582-6.944-16.93-10.718-25.247-3.87-8.526-8.677-16.07-13.276-24.167-4.744-8.354-10.108-20.166-8.356-29.98a1.523 1.523 0 0 0-.517-1.418c.247-.872-.628-1.99-1.71-1.765-8.459 1.755-22.83 10.991-18.608 21.628 2.041 5.145 8.264 5.81 10.961 10.27 1.416 2.34 2.416 2.778 4.613 4.624 1.57 1.32 2.642 3.28 2.828 5.328.112 1.234-.496 2.761-.162 3.949.589 2.097 2.574 2.619 3.79 4.312 1.214 1.692 1.412 4.881 2.364 6.881a18.533 18.533 0 0 1 3.348 5.583c.083.728.206 1.448.368 2.162.39 1.063.385.916 1.086 1.799.983 1.236 2.527 1.901 3.476 3.241 1.497 2.112 1.076 4.425 1.428 6.63.887 5.56 5.047 9.853 7.44 14.953 3.068 6.538 4.395 13.748 7.852 20.068 2.442 8.225 4.575 16.6 7.81 24.51 3.692 9.029 10.531 16.36 17.193 23.322a180.135 180.135 0 0 0 6.102 6.077c.664.841 1.323 1.656 1.992 2.367 2.652 2.817 5.382 5.56 8.47 7.901 4.723 3.583 9.922 7.812 15.75 9.31.933.52 1.854 1.038 2.752 1.56 4.063 2.362 10.705 8.1 15.954 8.044l.118.067c7.491 4.32 14.224 7.592 22.87 8.938 7.487 1.165 15.16.793 22.212-2.14 5.346-2.224 14.55-6.529 16.978-12.006.257-.581-.331-1.107-.88-1.037zM109.6 154.557c-3.119-9.702-5.753-19.598-9.49-29.09-2.744-6.966-5.791-15.245-10.825-21.153a13.688 13.688 0 0 1-.353-2.42c-.106-2.038-.384-3.55-1.476-5.337-1.335-2.185-3.95-3.505-4.908-5.83-.869-2.105-.62-4.374-1.942-6.488-.68-1.09-1.567-1.82-1.964-3.05-.364-1.125-.106-2.538-.48-3.742-.728-2.34-2.855-3.464-3.649-5.477-.646-1.64-.022-4.077-.644-5.95-.666-2.005-1.802-3.803-3.386-5.213-.89-.793-2.034-1.3-2.864-2.16-.932-.965-1.14-1.717-1.872-2.87-3.047-4.803-11.832-5.538-9.667-12.836 1.253-4.22 5.17-7.526 9.288-10.067a.507.507 0 0 0 .43.062 98.437 98.437 0 0 1 3.062-.953c-2.518 6.78.12 13.917 2.576 20.687 3.508 9.674 9.637 17.717 14.176 26.869 4.456 8.983 8.69 18.136 12.547 27.393a631.09 631.09 0 0 1 5.392 13.333c.242.62.474 1.251.703 1.888 1.016 16.21 8.646 34.149 19.143 46.078 5.73 6.513 11.686 12.954 18.223 18.667 3.342 2.92 7.39 6.609 11.796 8.803 3.177 3.553 6.673 6.437 11.072 9.023 6.937 4.082 14.475 7.341 21.78 10.703 6.904 3.176 13.682 5.678 21.21 6.899 4.713.764 9.143.998 13.91.93 1.275-.019 2.458-.04 3.589-.163-.283.159-.566.31-.848.447a34.207 34.207 0 0 1-9.014 2.968c-.84.008-1.67.013-2.46.023-5.137.068-10.255-.968-15.145-2.485-4.314-1.34-8.521-3.073-12.709-4.761-3.04-1.226-6.038-1.833-9.094-2.46-.62-.315-1.286-.633-1.995-1.013-3.57-1.915-7.282-3.498-10.838-5.456-2.094-1.152-4.212-2.432-6.363-3.696-4.146-3.315-8.972-6.122-13.011-9.311-1.41-1.114-2.758-2.233-4.096-3.329-3.926-3.556-7.763-7.224-11.436-11.04-8.303-8.63-14.67-16.922-18.368-28.423z"/><path fill="#fff" d="M88.285 20.755c6.039-3.352 11.437-7.05 18.231-8.87 6.72-1.799 13.462-.845 20.16-2.038 1.029-.183 1.528-1.68.39-2.157-6.079-2.547-13.845-.932-19.928.96-6.894 2.146-14.717 5.855-19.277 11.6a.334.334 0 0 0 .424.505zM228.34 194.312c1.525 3.427 4.036 6.917 3.569 10.84-.359 3.011-2.411 5.513-5.263 6.527-.596.212-.69 1.28.053 1.356 4.28.442 7.361-2.907 8.03-6.97.797-4.83-2.007-9.631-6.133-11.976-.151-.086-.33.056-.256.223zm-32.613 13.573c1.882 1.768 5.132 2.825 7.628 3.241 1.147.192 1.787-1.27.754-1.91-2.262-1.399-5.262-2.794-7.968-2.756-.766.011-.872.996-.414 1.425zm-77.72-74.764c2.346 8.069 6.489 15.51 11.326 22.37 4.298 6.096 9.055 12.107 15.652 15.8.732.41 1.459-.654.97-1.257-4.814-5.93-10.159-11.32-14.526-17.62-4.477-6.458-8.301-13.297-13.32-19.35-.044-.053-.12-.007-.102.057zm65.399-63.14c1.62 1.744 3.376 3.312 4.31 5.575 1.912 4.64.566 9.653-.473 14.303-1.547 6.926-2.643 13.938-2.038 21.038.062.721 1.243.96 1.348.147.775-6.011 1.423-11.99 3.066-17.843 1.037-3.695 2.26-7.378 2.471-11.243.284-5.183-2.042-12.859-8.23-13.121-.613-.026-.825.744-.454 1.143zm-.106 58.113c-1.45 2.826.03 7.083.965 9.854.436 1.295 2.253.753 2.23-.502-.056-3.022-.12-7.327-2.506-9.53-.227-.21-.568-.058-.689.178zM64.397 33.438c-3.489-.654-5.998 3.49-6.832 6.336-.865 2.951-.453 5.944 1.807 8.088.5.475 1.328-.042 1.271-.677-.206-2.293-.325-4.82.33-7.055.704-2.405 2.669-3.982 3.642-6.213.082-.187.006-.437-.218-.479zm31.574 74.416c.845 4.919 2.598 9.617 4.153 14.346 1.54 4.683 2.752 9.54 4.78 14.04.33.736 1.595.59 1.476-.315-1.232-9.33-5.036-20.268-10.269-28.128-.043-.065-.153-.018-.14.057zm40.668 79.294c3.857 7.347 12.523 12.853 19.148 17.46 7.917 5.507 16.525 11.422 25.892 14.076.628.178 1.187-.746.63-1.164-7.321-5.492-15.686-9.557-23.236-14.741-7.216-4.955-14.263-12.348-22.356-15.706-.043-.018-.103.027-.078.075zm69.819 37.074c.755 1.096 2.312 1.078 3.525 1.21 1.912.206 3.752.27 5.67.145.475-.03.564-.803.106-.936-1.875-.548-3.723-.872-5.663-1.081-1.246-.135-2.636-.471-3.62.442-.067.062-.068.148-.018.22zM124.47 25.75c-4.399 5.743-3.284 14.863-1.622 21.461 1.32 5.24 4.064 11.214 9.367 13.361.721.292 1.468-.563.963-1.213-3.083-3.97-5.869-7.285-7.276-12.231-1.817-6.388-2.39-14.69-.97-21.176.064-.292-.288-.428-.462-.202zm16.11 42.625c1.914 2.375 5.324 4.584 8.368 5.028.454.066.75-.538.448-.869-.997-1.087-2.188-1.89-3.427-2.67-1.455-.917-2.847-1.934-4.45-2.575-.627-.25-1.443.461-.939 1.086z"/><path d="M161.677 241.768c-15.184.308-27.41-9.898-36.149-21.394-9.595-12.623-16.615-27.365-24.314-41.176-5.448-9.771-12.361-23.98-25.75-23.05-11.965.83-19.437 15.007-25.082 23.857a285.301 285.301 0 0 0-13.18 22.976c-4.031 7.843-8.562 16.066-10.485 24.708-.063.284-.015.535.101.738-5.627 8.512-7.72 18.1.554 25.706 9.54 8.768 25.487 6.813 37.332 6.771 33.92-.12 68.532-1.555 102.105-6.673 1.207-.184 1.652-1.339 1.112-2.361-5.31-10.044-5.085-10.125-6.244-10.102zM40.22 256.758c-5.784-1.054-11.49-3.801-14.42-9.164-3.36-6.155-.022-13.076 2.542-18.871l.001-.005c.086-.072.168-.155.237-.264 5.108-8.207 8.434-17.587 12.954-26.157 4.549-8.624 9.564-16.98 14.899-25.14 4.677-7.155 10.613-18.293 20.396-18.46 11.207-.193 17.006 12.462 21.604 20.698 8.847 15.848 16.757 33.732 29.045 47.313 5.147 5.688 11.441 10.598 18.475 13.717 3.464 1.536 7.116 2.595 10.855 3.215 3.082.511 3.767.447 5.46 3.15.877 1.4 1.543 3.043 2.205 4.634-28.532 2.774-56.888 5.513-85.59 6.088-12.604.25-26.193 1.52-38.663-.753z"/><path d="M71.801 250.985c-11.389-.785-35.277.14-34.717-16.652.019-.566-.85-.832-1.021-.228-1.985 7.04 3.428 12.553 9.554 15.063 8.177 3.35 17.562 3.43 26.232 2.861.599-.039.535-1.004-.048-1.044zm18.913-69.944c-1.938-4.505-3.948-9.195-8.053-12.168-8.874-6.426-16.437 1.151-19.862 9.237-.103.245.295.422.424.192 1.908-3.414 4.385-7.387 8.048-9.154 6.495-3.132 11.851 1.835 14.802 7.17 4.216 7.623 6.67 16.075 11.032 23.666.233.405.802.041.687-.36-1.84-6.392-4.454-12.48-7.078-18.583zm151.31 26.442a.873.873 0 0 0-.583-.873c-1.39-13.818-30.719-24.477-41.443-37.97-23.1-29.063-5.171-73.574-2.82-90.262 1.582-11.226-7.314-16.533-18.755-13.825-3.905-19.198-19.748-46.36-38.333-52.353-.148-.273-.293-.55-.452-.811a1.58 1.58 0 0 0-.358-.542c-4.583-6.96-13.042-9.34-21.308-8.943-10.145.487-21.439 3.188-30.559 7.725C79.451 13.59 73.026 19.98 71.074 28.89c-4.549 20.767 13.394 38.957 24.221 62.155 5.555 11.903 8.854 24.594 12.974 37.022 13.571 40.94 42.276 67.594 82.6 83.814 14.553 5.854 36.34 14.151 46.68 4.22-8.888 14.886-31.075 14.381-47.802 9.668-11.66-3.284-23.22-8.601-33.578-14.937a.88.88 0 0 0-1.057-.661c-18.096-11.276-33.995-26.07-43.711-45.038-7.565-14.769-9.048-31.642-16.116-46.562-5.361-11.319-8.563-11.202-9.27-13.507-.38-1.24.678-2.474.925-3.733.955-4.857-2.474-8.443-6.734-9.084.707-.728.281-1.716-.42-1.853.844-3.805-1.355-7.54-4.994-8.635a1.142 1.142 0 0 0-.204-.972c1.833-3.387-.268-8.268-4.601-8.574 3.292-5.397-1.034-12.012-6.994-12.047.03-.223.021-.45-.032-.665.714-1.306 1.014-2.748.337-4.244-1.59-3.52-6.444-2.874-8.802-5.628-3.376-3.942-1.886-10.383 1.316-13.885 3.848-4.209 9.67-6.019 14.943-7.691.76-.242.475-1.423-.308-1.212-7.69 2.072-17.587 5.032-19.687 13.892-1.09 4.593-.043 9.586 3.976 12.123 2.34 1.479 6.87 2.45 5.99 5.49-2.03.023-4.325 1.195-5.787 2.313-1.104.846-.703 2.722.833 2.675.882-.028 1.974-.13 3.052-.362.334.207.768.273 1.163.064 5.868-3.113 10.75 2.816 8.306 7.765-1.519-1.099-2.743.014-3.877.576-.97.48-1.987.845-2.952 1.335-1.54.782-1.042 3.29.823 3.026 1.284-.182 3.057-.633 4.445-1.443.244.286.611.454 1.016.308 4.604-1.44 5.344.97 2.22 7.228a.949.949 0 0 0-.634.572c-.552.423-1.099.86-1.652 1.32-1.933 1.602.42 4.676 2.384 3.095 1.795-1.447 2.503-1.9 3.61-3.321 3.112.646 5.28 3.79 4.165 7.006-1.114.372-2.052 1.184-2.814 2.073-1.134 1.322-1.328 2.629-.989 4.277.09.438.643.563.915.211.302-.39.578-.523.936-.888.714-.728 1.174-1.413 1.862-2 5.394-.932 8.682 4.07 6.635 8.477-1.493-.564-3.783 3.053-4.706 4.38-1.164 1.668 1.237 3.491 2.524 1.906.74-.912 1.53-1.819 2.161-2.816 20.946 21.522 9.33 53.998 48.12 89.7-.299.43-.53.911-.84 1.443-.462.79-1.044 1.524-1.562 2.28-.782 1.138.531 2.385 1.665 1.674 1.225-.768 2.365-1.988 2.933-3.383 5.71 5.012 11.871 9.509 18.32 13.534-3.933 4.132-2.59 10.3 2.542 1.538 6.925 4.142 14.043 7.86 21.545 10.91-1.045 1.528-2.153 2.963-3.712 4.062-.998.702-.27 2.33.933 1.957 2.466-.767 4.524-2.621 5.247-5.05 4.674 1.782 9.451 3.266 14.297 4.312-.14.486-.241.985-.344 1.486-.169.817-.61 1.663-.58 2.496.035 1.006 1.226 1.908 2.104 1.067.885-.846 1.32-2.343 1.483-3.546.044-.327.056-.651.05-.971 4.004.725 8.337 1.2 12.312 1.193-.28.775-.2 1.018-.14 1.76.061.748.143 1.296.461 2.004.456 1.01 2.21.913 2.452-.219.202-.953.02-2.333-.135-2.981a2.247 2.247 0 0 0-.265-.624c14.015-.68 30.283-7.261 30.773-23.283zm-64.83-142.62c-4.087 1.092-8.154 2.74-11.91 3.654-22.237 5.42-46.654-23.94-35.733-42.28 2.73-4.586 7.239-7.57 9.517-12.389.207.344.437.541.866.43 26.354 18.372 26.475 32.683 37.26 50.584zM73.574 35.153c8.404 5.65 23.787 1.04 30.211 1.2 7.45.188 9.006 8.703 20.75 10.164.781.098 1.31-1.072.472-1.394-13.592-5.228-12.562-12.113-23.895-11.422-11.844.722-15.248 3.834-27.374-1.54C75.45 17.018 88.682 10.67 103.473 7.277c10.751-2.467 25.26-5.215 33.428 3.68a1.685 1.685 0 0 0-.144.32c-2.712 8.072-11.717 10.135-12.607 23.498-.59 8.84 3.626 17.13 9.399 23.557a50.798 50.798 0 0 0 1.567 1.658c-13.655 1.569-18.546-7.067-29.044-10.682-10.794-3.713-19.72 2.579-30.98-4.267-.949-3.254-1.522-6.572-1.518-9.886zm164.77 178.53c-4.884 6.677-14.003 6.138-21.2 4.439-36.764-8.677-72.454-30.114-93.003-62.727-11.788-18.709-15.216-40.554-23.625-60.697-7.84-18.783-19.825-33.568-24.588-47.076 8.404 6.135 22.121-.194 32.912 5.333 7.423 3.802 19.054 13.815 27.91 8.623 6.232 5.777 14.66 10.356 23.01 9.976.86 2.578 12.117 7.121 12.297 29.05.097 11.704-2.435 23.381-.389 35.043 3.173 18.086 14.736 32.814 30.89 41.174.137.07.265-.163.13-.24-18.354-10.254-31.054-30.975-28.886-58.677.56.109 2.954-1.248 9.056-1.416.623-.016.846-.874.214-1.102a9.435 9.435 0 0 0-9.195 1.564c.595-7.247 1.463-14.512.785-21.738.52.014 5.104-2.14 12.319-.975.819.133 1.123-.95.34-1.243-4.35-1.635-8.774-1.22-12.775 1.17-.977-8.463-4.842-19.223-12.516-22.82 6.988-.967 13.323-4.606 20.556-4.952 7-.334 12.78 3.192 12.157 10.93-.5 6.217-2.774 12.63-4.148 18.712-2.532 11.214-4.624 22.707-4.614 34.241.015 17.873 5.925 36.544 20.687 47.61 11.619 8.711 32.58 17.702 33.62 29.23-.02.068-.05.129-.055.21a18.887 18.887 0 0 1-.816 4.532 11.147 11.147 0 0 1-1.073 1.825z"/><path d="M184.004 141.077c-2.527-1.042-5.133-.11-7.114 1.584-.584.499.241 1.51.862 1.047 1.822-1.363 3.936-1.648 6.146-1.693.512-.011.515-.769.106-.938z"/></svg>