<svg xmlns="http://www.w3.org/2000/svg" viewBox="0 0 266 266"><path d="M28.427 255.642c9.539 8.769 25.487 6.814 37.332 6.772 33.92-.12 68.532-1.555 102.105-6.673 1.207-.185 1.652-1.339 1.112-2.361-5.31-10.044-5.085-10.125-6.245-10.102-15.183.308-27.41-9.898-36.148-21.394-9.595-12.623-16.615-27.366-24.314-41.176-5.448-9.772-12.362-23.98-25.75-23.05-11.966.83-19.438 15.007-25.083 23.856a285.301 285.301 0 0 0-13.178 22.977c-4.033 7.843-8.564 16.065-10.486 24.708-.063.283-.015.535.101.737-5.627 8.513-7.72 18.1.554 25.706zm.97-25.41c.002 0 .001-.003.002-.005.086-.07.168-.154.237-.263 5.108-8.207 8.434-17.587 12.954-26.158 4.549-8.624 9.564-16.98 14.899-25.14 4.677-7.154 10.613-18.292 20.395-18.46 11.208-.192 17.007 12.463 21.605 20.7 8.847 15.847 16.756 33.73 29.045 47.312 5.147 5.688 11.44 10.597 18.475 13.716 3.464 1.537 7.116 2.596 10.854 3.216 3.082.511 3.768.447 5.461 3.15.877 1.399 1.543 3.043 2.205 4.633-28.532 2.775-56.889 5.514-85.59 6.088-12.605.251-26.193 1.52-38.663-.753-5.784-1.054-11.49-3.801-14.42-9.165-3.36-6.154-.022-13.075 2.542-18.87z"/><path d="M46.672 250.678c8.177 3.35 17.562 3.43 26.232 2.86.599-.038.534-1.003-.048-1.043-11.389-.785-35.277.14-34.717-16.652.019-.566-.85-.832-1.021-.228-1.985 7.04 3.428 12.553 9.554 15.063zm17.606-70.867c1.907-3.414 4.385-7.386 8.048-9.153 6.495-3.132 11.851 1.835 14.802 7.17 4.216 7.623 6.67 16.075 11.032 23.666.233.404.802.041.687-.36-1.84-6.392-4.454-12.48-7.078-18.583-1.938-4.505-3.948-9.196-8.053-12.168-8.874-6.426-16.437 1.151-19.862 9.237-.104.245.295.422.424.191zm178.8 29.182a.873.873 0 0 0-.582-.873c-1.39-13.818-30.719-24.478-41.443-37.97-23.1-29.063-5.171-73.575-2.82-90.262 1.581-11.227-7.314-16.534-18.755-13.826-3.905-19.197-19.748-46.36-38.333-52.352-.148-.274-.294-.551-.453-.812a1.58 1.58 0 0 0-.357-.542c-4.583-6.959-13.042-9.34-21.308-8.942-10.145.487-21.439 3.187-30.559 7.725C80.506 15.1 74.081 21.49 72.128 30.4 67.58 51.168 85.524 69.357 96.35 92.556c5.555 11.903 8.854 24.594 12.974 37.022 13.571 40.94 42.275 67.594 82.6 83.813 14.552 5.855 36.34 14.152 46.68 4.221-8.888 14.886-31.075 14.381-47.803 9.668-11.66-3.284-23.219-8.601-33.577-14.937a.88.88 0 0 0-1.057-.662c-18.096-11.275-33.995-26.069-43.711-45.038-7.565-14.768-9.048-31.641-16.117-46.561-5.36-11.32-8.562-11.202-9.268-13.507-.38-1.24.677-2.475.924-3.733.955-4.857-2.474-8.444-6.734-9.084.707-.728.28-1.716-.42-1.853.843-3.806-1.355-7.54-4.994-8.636a1.142 1.142 0 0 0-.204-.971c1.833-3.387-.268-8.268-4.601-8.575 3.292-5.396-1.034-12.011-6.994-12.046.03-.223.021-.45-.032-.665.714-1.306 1.014-2.748.337-4.245-1.59-3.52-6.444-2.874-8.802-5.628-3.376-3.94-1.886-10.382 1.316-13.884 3.848-4.21 9.67-6.019 14.943-7.692.76-.24.475-1.423-.308-1.212-7.69 2.073-17.588 5.033-19.688 13.893-1.088 4.593-.042 9.586 3.977 12.123 2.34 1.479 6.869 2.45 5.99 5.49-2.03.023-4.325 1.195-5.787 2.313-1.104.845-.703 2.721.833 2.675.882-.028 1.974-.13 3.052-.363.334.207.768.274 1.163.065 5.868-3.114 10.75 2.816 8.306 7.764-1.519-1.098-2.743.015-3.877.577-.97.479-1.987.844-2.952 1.334-1.54.783-1.043 3.292.822 3.027 1.285-.183 3.058-.633 4.446-1.443.244.286.611.454 1.016.308 4.603-1.44 5.344.97 2.22 7.228a.949.949 0 0 0-.634.572c-.552.423-1.099.86-1.652 1.32-1.933 1.602.42 4.676 2.384 3.095 1.795-1.447 2.503-1.9 3.61-3.321 3.112.646 5.28 3.79 4.165 7.006-1.114.372-2.052 1.184-2.814 2.073-1.134 1.322-1.328 2.629-.989 4.277.09.438.642.563.915.211.301-.39.578-.523.936-.889.714-.727 1.174-1.413 1.862-2 5.394-.931 8.682 4.07 6.635 8.478-1.493-.564-3.783 3.053-4.707 4.379-1.163 1.669 1.238 3.492 2.525 1.907.74-.912 1.53-1.82 2.161-2.816 20.945 21.521 9.33 53.998 48.12 89.7-.299.43-.53.911-.84 1.443-.462.79-1.044 1.524-1.562 2.28-.782 1.138.53 2.384 1.665 1.673 1.225-.767 2.365-1.987 2.933-3.382 5.71 5.011 11.871 9.508 18.32 13.534-3.933 4.132-2.59 10.3 2.542 1.538 6.925 4.141 14.043 7.86 21.545 10.91-1.045 1.527-2.153 2.963-3.712 4.061-.998.703-.27 2.33.932 1.957 2.467-.766 4.524-2.62 5.248-5.048 4.674 1.78 9.45 3.264 14.297 4.311-.14.486-.241.985-.345 1.486-.168.817-.609 1.663-.58 2.496.036 1.005 1.227 1.908 2.105 1.067.885-.847 1.32-2.344 1.483-3.546.044-.327.056-.651.049-.972 4.005.726 8.338 1.2 12.313 1.194-.28.775-.2 1.018-.14 1.76.061.748.142 1.295.461 2.003.456 1.011 2.21.914 2.451-.218.203-.953.02-2.333-.135-2.982a2.247 2.247 0 0 0-.264-.623c14.015-.68 30.283-7.262 30.773-23.283zM140.123 15.358c.208.344.438.541.867.43 26.354 18.372 26.475 32.683 37.26 50.584-4.087 1.093-8.154 2.74-11.91 3.655-22.237 5.42-46.654-23.94-35.733-42.281 2.73-4.585 7.239-7.57 9.516-12.388zM74.63 36.664c8.403 5.65 23.787 1.04 30.211 1.2 7.45.188 9.005 8.703 20.75 10.164.781.098 1.31-1.072.472-1.394-13.592-5.228-12.562-12.113-23.895-11.422-11.845.721-15.248 3.834-27.374-1.54 1.711-15.146 14.944-21.493 29.734-24.886 10.752-2.467 25.261-5.215 33.429 3.68a1.685 1.685 0 0 0-.144.319c-2.713 8.072-11.717 10.136-12.607 23.499-.59 8.839 3.625 17.13 9.399 23.557a50.798 50.798 0 0 0 1.567 1.658c-13.655 1.568-18.546-7.068-29.044-10.682-10.795-3.713-19.72 2.578-30.98-4.267-.949-3.254-1.522-6.573-1.518-9.886zm143.57 182.969c-36.765-8.678-72.454-30.115-93.003-62.727-11.789-18.709-15.216-40.555-23.625-60.697C93.73 77.426 81.746 62.64 76.983 49.133c8.404 6.135 22.121-.195 32.912 5.333 7.423 3.801 19.054 13.815 27.91 8.623 6.232 5.777 14.659 10.355 23.01 9.975.86 2.578 12.117 7.122 12.297 29.05.097 11.705-2.435 23.382-.389 35.044 3.173 18.086 14.736 32.814 30.89 41.174.137.07.265-.163.13-.24-18.354-10.254-31.054-30.976-28.886-58.677.56.108 2.954-1.25 9.056-1.416.623-.017.846-.874.214-1.103a9.435 9.435 0 0 0-9.195 1.565c.595-7.247 1.463-14.512.784-21.739.522.015 5.105-2.14 12.32-.974.819.133 1.123-.95.34-1.243-4.35-1.635-8.774-1.221-12.775 1.17-.977-8.463-4.842-19.223-12.516-22.82 6.988-.967 13.323-4.606 20.556-4.952 7-.334 12.78 3.192 12.157 10.929-.5 6.218-2.774 12.63-4.148 18.713-2.532 11.214-4.624 22.707-4.614 34.241.015 17.873 5.925 36.544 20.687 47.61 11.619 8.71 32.58 17.701 33.62 29.23-.02.068-.05.129-.055.21a18.887 18.887 0 0 1-.816 4.532 11.148 11.148 0 0 1-1.073 1.825c-4.884 6.678-14.003 6.139-21.2 4.44z"/><path d="M185.059 142.587c-2.527-1.042-5.133-.11-7.114 1.584-.584.499.241 1.51.862 1.047 1.822-1.364 3.936-1.648 6.146-1.694.511-.01.515-.768.106-.937z"/></svg>